<?xml version="1.0" ?><!DOCTYPE svg  PUBLIC '-//W3C//DTD SVG 1.1//EN'  'http://www.w3.org/Graphics/SVG/1.1/DTD/svg11.dtd'><svg enable-background="new 0 0 48 48" height="48px" version="1.1" viewBox="0 0 48 48" width="48px" xml:space="preserve" xmlns="http://www.w3.org/2000/svg" xmlns:xlink="http://www.w3.org/1999/xlink"><g id="Layer_4"><g><path d="M28.077,16.91l-0.01,0.014l1.604,1.49l4.806,4.805c1.302,1.087,2.147,2.704,2.147,4.532    c0,0.166-0.034,0.32-0.048,0.484l4.188-4.031l-0.012-0.008c0.738-0.669,1.217-1.613,1.217-2.687c0-0.781-0.252-1.497-0.67-2.09    h0.001c0-0.002-0.005-0.007-0.008-0.01c-0.017-0.027-0.038-0.05-0.058-0.076c-0.103-0.135-0.311-0.396-0.447-0.565l0.001-0.027    l-6.467-6.467c-0.214-0.186-0.412-0.384-0.597-0.597l-0.133-0.133l0.013-0.014c-0.83-1.02-1.348-2.304-1.348-3.722    c0-0.112,0.027-0.215,0.033-0.325l-0.07-0.069l-1.315,1.315l-2.938,2.89c0,0,0.013,0.01,0.016,0.012    c-0.653,0.674-1.072,1.572-1.072,2.584C26.912,15.28,27.367,16.224,28.077,16.91z" fill="#241F20"/><path d="M39.127,12.158l-0.006,0.01l1.024,0.951l3.069,3.069c0.832,0.695,1.372,1.727,1.372,2.894    c0,0.106-0.022,0.205-0.031,0.309l2.675-2.573l-0.008-0.005C47.694,16.386,48,15.782,48,15.097c0-0.5-0.16-0.958-0.428-1.335    l0.001-0.001c0,0-0.004-0.005-0.005-0.006c-0.011-0.016-0.024-0.031-0.037-0.048c-0.065-0.086-0.198-0.253-0.286-0.361    l0.001-0.017l-4.13-4.13c-0.137-0.119-0.263-0.245-0.381-0.38L42.65,8.731l0.009-0.007c-0.531-0.653-0.861-1.473-0.861-2.378    c0-0.07,0.018-0.137,0.021-0.206l-0.044-0.044l-0.84,0.839l-1.877,1.847c0,0,0.009,0.005,0.01,0.006    c-0.416,0.432-0.685,1.005-0.685,1.652C38.383,11.118,38.675,11.722,39.127,12.158z" fill="#241F20"/><rect fill="#241F20" height="7.578" width="12.527" y="34.326"/><rect fill="#241F20" height="7.578" width="32.947" x="15.053" y="34.326"/></g></g></svg>